<?xml version="1.0" standalone="no"?>
<!DOCTYPE svg PUBLIC "-//W3C//DTD SVG 20010904//EN"
 "http://www.w3.org/TR/2001/REC-SVG-20010904/DTD/svg10.dtd">
<svg version="1.0" xmlns="http://www.w3.org/2000/svg"
 width="512.000000pt" height="512.000000pt" viewBox="0 0 512.000000 512.000000"
 preserveAspectRatio="xMidYMid meet">
<metadata>
Created by potrace 1.11, written by Peter Selinger 2001-2013
</metadata>
<g transform="translate(0.000000,512.000000) scale(0.100000,-0.100000)"
fill="#000000" stroke="none">
<path d="M2070 5065 l0 -55 -55 0 -55 0 0 -55 0 -55 -55 0 -55 0 0 -55 0 -55
-55 0 -55 0 0 -49 0 -50 -52 -3 -53 -3 -3 -52 -3 -52 -52 -3 -52 -3 -3 -52 -3
-52 -52 -3 -51 -3 3 -52 2 -53 -55 0 -56 0 0 -600 0 -600 -55 0 -55 0 0 -380
0 -380 -55 0 -55 0 0 -110 0 -110 -55 0 -55 0 0 -110 0 -110 -55 0 -55 0 0
-980 0 -980 1035 0 1035 0 0 55 0 55 55 0 55 0 0 55 0 55 55 0 55 0 0 55 0 55
55 0 55 0 0 49 0 50 53 3 52 3 3 52 3 52 52 3 52 3 3 52 3 52 52 3 52 3 3 52
3 52 52 3 51 3 -3 53 -2 52 55 0 56 0 0 55 0 55 55 0 55 0 0 55 0 55 55 0 55
0 0 55 0 55 55 0 55 0 0 1960 0 1960 -1035 0 -1035 0 0 -55z"/>
</g>
</svg>
